# xmcd CD database file
#
# Track frame offsets:
#	150
#	22735
#	50825
#	68411
#	85898
#	108377
#	120120
#	131380
#	156437
#	183572
#	198361
#	224618
#	246086
#	268812
#	280900
#	294374
#	316702
#	337575
#
# Disc length: 4746 seconds
#
# Revision: 4
# Processed by: cddbd v1.5.2PL0 Copyright (c) Steve Scherf et al.
# Submitted via: CDex 1.70beta2
#
DISCID=fa128812
DTITLE=Martyn Joseph - Thunder and Rainbows (The Best we cound find)
DYEAR=2000
DGENRE=Folk
TTITLE0=Treasure The Questions
TTITLE1=Dic Penderyn
TTITLE2=Arizona Dreams
TTITLE3=Love The Light In You
TTITLE4=Strange Way
TTITLE5=In Between Rounds Girl
TTITLE6=Hang The World
TTITLE7=He Never Said
TTITLE8=Have An Angel Walk With Her
TTITLE9=My Love My Life
TTITLE10=People Crazy As Me
TTITLE11=The Good In Me Is Dead
TTITLE12=One Of Us
TTITLE13=Do Not Disturb
TTITLE14=Liberal Backslider
TTITLE15=All This Time
TTITLE16=This Is Us
TTITLE17=Undiscovered Love
EXTD=YEAR: 2000
EXTT0=
EXTT1=
EXTT2=
EXTT3=
EXTT4=
EXTT5=
EXTT6=
EXTT7=
EXTT8=
EXTT9=
EXTT10=
EXTT11=
EXTT12=
EXTT13=
EXTT14=
EXTT15=
EXTT16=
EXTT17=
PLAYORDER=
